<svg width="56" height="56" viewBox="0 0 56 56" fill="none" xmlns="http://www.w3.org/2000/svg">
<path d="M17.0922 32.1796L5.19904 35.7816L27.5583 52.3301L39.0097 49.068L17.0922 32.1796Z" fill="#00A7FF"/>
<path d="M17.0922 32.1796L5.19904 35.7816L27.5583 52.3301L39.0097 49.068L17.0922 32.1796Z" fill="url(#paint0_linear)"/>
<path d="M17.0922 32.1796L5.19904 35.7816L27.5583 52.3301L39.0097 49.068L17.0922 32.1796Z" fill="url(#paint1_linear)"/>
<path d="M5.19904 35.7816L17.0922 32.1796V19.6748L5.19904 23.1408V35.7816Z" fill="#00CEFF"/>
<path d="M5.19904 35.7816L17.0922 32.1796V19.6748L5.19904 23.1408V35.7816Z" fill="url(#paint2_linear)"/>
<path d="M17.0922 19.6748V32.1796L39.0097 49.068V36.1893L17.0922 19.6748Z" fill="#0BFEFD"/>
<path d="M17.0922 19.6748V32.1796L39.0097 49.068V36.1893L17.0922 19.6748Z" fill="url(#paint3_linear)"/>
<path d="M39.0097 36.1893L50.835 32.6553V20.0146L39.0097 23.6845V36.1893Z" fill="#00CEFF"/>
<path d="M39.0097 36.1893L50.835 32.6553V20.0146L39.0097 23.6845V36.1893Z" fill="url(#paint4_linear)"/>
<path d="M17.0922 19.6748L39.0097 36.1893V23.6845L17.0922 6.72816V19.6748Z" fill="#00A7FF"/>
<path d="M17.0922 19.6748L39.0097 36.1893V23.6845L17.0922 6.72816V19.6748Z" fill="url(#paint5_linear)"/>
<path d="M39.0097 23.6845L50.835 20.0146L28.5097 3.5L17.0922 6.72816L39.0097 23.6845Z" fill="#0BFEFD"/>
<path d="M39.0097 23.6845L50.835 20.0146L28.5097 3.5L17.0922 6.72816L39.0097 23.6845Z" fill="url(#paint6_linear)"/>
<path d="M39.0097 23.6845L50.835 20.0146L28.5097 3.5L17.0922 6.72816L39.0097 23.6845Z" fill="url(#paint7_linear)"/>
<path d="M5.19904 35.7816L17.0922 32.1796M5.19904 35.7816V23.1408L17.0922 19.6748M5.19904 35.7816L27.5583 52.3301L39.0097 49.068M17.0922 32.1796V19.6748M17.0922 32.1796L39.0097 49.068M17.0922 19.6748L39.0097 36.1893M17.0922 19.6748V6.72816M39.0097 49.068V36.1893M39.0097 36.1893L50.835 32.6553V20.0146M39.0097 36.1893V23.6845M50.835 20.0146L39.0097 23.6845M50.835 20.0146L28.5097 3.5L17.0922 6.72816M39.0097 23.6845L17.0922 6.72816" stroke="url(#paint8_linear)" stroke-width="0.4" stroke-linecap="round" stroke-linejoin="round"/>
<defs>
<linearGradient id="paint0_linear" x1="5.16506" y1="35.8155" x2="39.1796" y2="49.3398" gradientUnits="userSpaceOnUse">
<stop stop-color="#01A0F1"/>
<stop offset="1" stop-color="#017DCF"/>
</linearGradient>
<linearGradient id="paint1_linear" x1="28.017" y1="3.5" x2="28.017" y2="52.3301" gradientUnits="userSpaceOnUse">
<stop offset="0.640919" stop-opacity="0"/>
<stop offset="0.965205" stop-opacity="0.07"/>
<stop offset="1" stop-opacity="0.2"/>
</linearGradient>
<linearGradient id="paint2_linear" x1="5.16506" y1="22.8689" x2="17.3301" y2="32.4515" gradientUnits="userSpaceOnUse">
<stop stop-color="#02D1FF"/>
<stop offset="1" stop-color="#01C5FF"/>
</linearGradient>
<linearGradient id="paint3_linear" x1="16.9903" y1="19.5728" x2="39.1117" y2="49.1699" gradientUnits="userSpaceOnUse">
<stop stop-color="#08DCF8"/>
<stop offset="1" stop-color="#0AF5FD"/>
</linearGradient>
<linearGradient id="paint4_linear" x1="47.1651" y1="20.5922" x2="50.835" y2="33.0291" gradientUnits="userSpaceOnUse">
<stop stop-color="#25DEFF"/>
<stop offset="1" stop-color="#06D4FE"/>
</linearGradient>
<linearGradient id="paint5_linear" x1="25.3835" y1="25.9612" x2="32.7913" y2="16.6505" gradientUnits="userSpaceOnUse">
<stop stop-color="#1399DF"/>
<stop offset="1" stop-color="#2FC1FF"/>
</linearGradient>
<linearGradient id="paint6_linear" x1="17.1942" y1="6.62621" x2="50.835" y2="19.7767" gradientUnits="userSpaceOnUse">
<stop stop-color="#01C2FF"/>
<stop offset="1" stop-color="#22FDFC"/>
</linearGradient>
<linearGradient id="paint7_linear" x1="28.017" y1="3.5" x2="28.017" y2="52.3301" gradientUnits="userSpaceOnUse">
<stop stop-color="white" stop-opacity="0.7"/>
<stop offset="0.283311" stop-color="white" stop-opacity="0"/>
</linearGradient>
<linearGradient id="paint8_linear" x1="28.017" y1="3.5" x2="28.017" y2="52.3301" gradientUnits="userSpaceOnUse">
<stop stop-color="white" stop-opacity="0.8"/>
<stop offset="0.70339" stop-color="#6BFAFF" stop-opacity="0.51"/>
<stop offset="0.850552" stop-color="#148EC2" stop-opacity="0.37"/>
</linearGradient>
</defs>
</svg>
